<?xml version="1.0" encoding="UTF-8" standalone="no"?>
<svg
   version="1.1"
   id="Layer_1"
   x="0px"
   y="0px"
   viewBox="0 0 64.000001 64"
   xml:space="preserve"
   sodipodi:docname="discover.svg"
   width="64"
   height="64"
   inkscape:version="1.4 (e7c3feb100, 2024-10-09)"
   xmlns:inkscape="http://www.inkscape.org/namespaces/inkscape"
   xmlns:sodipodi="http://sodipodi.sourceforge.net/DTD/sodipodi-0.dtd"
   xmlns="http://www.w3.org/2000/svg"
   xmlns:svg="http://www.w3.org/2000/svg"><defs
     id="defs1" /><sodipodi:namedview
     id="namedview1"
     pagecolor="#ffffff"
     bordercolor="#000000"
     borderopacity="0.25"
     inkscape:showpageshadow="2"
     inkscape:pageopacity="0.0"
     inkscape:pagecheckerboard="0"
     inkscape:deskcolor="#d1d1d1"
     inkscape:zoom="7.1866939"
     inkscape:cx="22.054647"
     inkscape:cy="42.996126"
     inkscape:window-width="1920"
     inkscape:window-height="1021"
     inkscape:window-x="1920"
     inkscape:window-y="0"
     inkscape:window-maximized="1"
     inkscape:current-layer="Layer_1" /><style
     type="text/css"
     id="style1">.st0{fill-rule:evenodd;clip-rule:evenodd;}</style><circle
     style="opacity:1;fill:#87ffff;stroke:none;stroke-width:1.95396;stroke-linecap:round;stroke-linejoin:round;stroke-dasharray:none;fill-opacity:1"
     id="path8"
     cx="28.742493"
     cy="28.746235"
     r="21.478966" /><g
     id="g8"
     transform="matrix(0.9192615,-0.33082784,0.33082784,0.9192615,-14.561823,14.32369)"><path
       id="path6"
       style="fill:#ff7f2a;stroke:#000000;stroke-width:0.657958;stroke-linecap:round;stroke-linejoin:round"
       d="m 36.562549,13.63033 c -1.254023,0 -2.185896,0.881465 -2.185896,1.883905 0,0.356715 0.112714,0.68377 0.322551,0.977934 0.0071,0.02282 0.01316,0.04598 0.01799,0.06939 0.722886,0.830976 1.141965,1.68947 0.920106,2.543142 -0.116909,0.449855 -0.424752,0.83583 -0.816015,1.087165 -0.391263,0.251336 -0.860033,0.392789 -1.398151,0.460053 -0.0294,0.004 -0.05901,0.0061 -0.08867,0.0064 H 29.41373 c -0.115525,0 -0.204324,0.08881 -0.204324,0.204325 v 3.987557 c 0.119782,0.643129 0.305025,0.793872 0.479329,0.828867 0.178393,0.03581 0.675249,-0.07708 1.341607,-0.687511 0.03381,-0.008 0.06817,-0.01366 0.102805,-0.0167 l -0.03598,-0.01928 c 0.513264,-0.366129 1.138202,-0.587274 1.804231,-0.587274 1.861247,0 3.305187,1.663776 3.305187,3.607176 0,1.943402 -1.443941,3.607178 -3.305187,3.607178 -0.586859,0 -1.114843,-0.226644 -1.589625,-0.517882 -0.09597,0.0038 -0.191707,-0.01199 -0.28143,-0.04626 -0.666189,-0.610277 -1.161834,-0.722286 -1.340323,-0.686225 -0.174398,0.03524 -0.360788,0.186888 -0.480613,0.830153 v 4.042786 c 0,0.115522 0.08881,0.203041 0.204324,0.203041 h 4.475881 c 0.06832,1.07e-4 0.136273,0.01006 0.201756,0.02956 0.844399,0.249444 1.524705,0.892363 1.594765,1.712992 0.06618,0.775209 -0.330087,1.513707 -0.971509,2.247578 -0.0043,0.02035 -0.0094,0.04051 -0.01542,0.0604 -0.209546,0.296526 -0.324852,0.625473 -0.325122,0.979219 v 0.0013 c 0.0026,1.002634 0.934301,1.883441 2.187181,1.881335 h 0.0013 c 1.254022,0 2.18718,-0.882358 2.18718,-1.883905 0,-0.356716 -0.112714,-0.683769 -0.322551,-0.977934 -0.0078,-0.04497 -0.01124,-0.09059 -0.01028,-0.136217 -0.601542,-0.709808 -0.983579,-1.425079 -0.920106,-2.174329 0.06949,-0.820296 0.751528,-1.463513 1.596051,-1.712992 0.06507,-0.01938 0.132578,-0.02933 0.20047,-0.02956 h 4.46046 c 0.115523,0 0.204324,-0.08881 0.204324,-0.204325 l 3.5e-5,-14.338752 c 0,-0.115523 -0.08881,-0.204326 -0.204324,-0.204326 h -3.905306 c -0.03009,-2.43e-4 -0.06014,-0.0024 -0.08996,-0.0064 -0.537284,-0.06804 -1.004795,-0.210011 -1.39558,-0.461338 -0.390786,-0.251329 -0.698822,-0.636302 -0.816017,-1.08588 -0.215618,-0.827143 0.186525,-1.658675 0.867418,-2.466039 -0.0016,-0.04906 0.0018,-0.09815 0.01028,-0.146498 0.209838,-0.294164 0.32255,-0.621219 0.32255,-0.977934 v -0.0013 c 0.0018,-1.00177 -0.927315,-1.882636 -2.184609,-1.882636 z"
       sodipodi:nodetypes="csccssccsscscccsssccscssccsccsssssccsccssssccssccsscc" /><path
       id="path7"
       style="opacity:0.200672;stroke-width:0.657958;stroke-linecap:round;stroke-linejoin:round"
       d="m 36.562019,14.728856 c -0.739551,0 -1.087211,0.463329 -1.087211,0.785819 0,0.126323 0.0228,0.208174 0.117141,0.34044 0.06446,0.0911 0.114666,0.191498 0.148866,0.297732 0.0013,0.0021 0.0025,0.0041 0.0037,0.0061 0.34249,0.435748 0.666067,0.894424 0.848049,1.415449 0.164943,-0.464733 0.454379,-0.868876 0.747992,-1.262923 0.006,-0.03405 -0.007,0.04334 0.0013,-0.0049 0.02826,-0.162809 0.09292,-0.317138 0.189133,-0.45148 0.09551,-0.1339 0.11836,-0.216617 0.11836,-0.34044 -2e-6,-0.0013 -2e-6,-0.0025 0,-0.0037 5.75e-4,-0.321242 -0.342738,-0.782157 -1.087211,-0.782157 z m 0.02928,4.873537 c -0.230181,0.640278 -0.643005,1.16972 -1.177507,1.513067 -0.567671,0.364655 -1.203659,0.543548 -1.851066,0.62475 -8.9e-4,1.12e-4 -0.0016,0.0011 -0.0025,0.0013 -1.105302,0.158346 1.625444,-0.108833 -0.106158,0.0098 -1.851879,0.126833 1.742709,-0.0055 -0.11348,0.0049 -0.0021,6e-6 -0.0041,6e-6 -0.0061,0 h -3.027345 v 2.417245 c 0.04266,-0.02661 0.0871,-0.05026 0.133003,-0.07078 0.0062,-0.01355 0.01275,-0.02698 0.01952,-0.04027 0.68661,-0.489782 1.533015,-0.791918 2.441651,-0.791919 2.51534,0 4.403755,2.217862 4.403755,4.705148 0,2.487286 -1.888415,4.705147 -4.403755,4.705147 -0.736963,0 -1.346858,-0.251918 -1.86937,-0.536894 0.0016,-0.0055 0.162713,0.02906 -0.04271,-0.0049 -0.874481,-0.144476 0.678597,0.193832 -0.176931,-0.03783 -0.855527,-0.231656 0.654635,0.259139 -0.17327,-0.05735 -0.121984,-0.04797 -0.234391,-0.117399 -0.331899,-0.204996 v 2.470935 h 3.582551 c 0.0025,-8e-6 0.0049,-8e-6 0.0073,0 0.90371,0.006 -0.771604,-0.06479 0.129343,0.0061 0.900945,0.0709 -0.764191,-0.120741 0.129342,0.01465 0.893533,0.135383 -0.753385,-0.174774 0.128123,0.0244 0.839369,0.189657 -0.488565,-0.157757 0.119581,0.03173 0.961998,0.284647 1.82629,0.983063 2.187845,1.968207 0.361211,-0.98688 1.22651,-1.685836 2.189065,-1.970648 5.23e-4,-1.57e-4 6.8e-4,-0.0011 0.0013,-0.0013 0.553036,-0.173856 -0.711049,0.157315 0.11836,-0.03051 0.881667,-0.199653 -0.766763,0.111825 0.126902,-0.0244 0.893666,-0.136229 -0.772985,0.05747 0.128124,-0.01465 0.901108,-0.07211 -0.775835,0.0015 0.128122,-0.0061 0.0033,-1.4e-5 0.0065,-1.4e-5 0.0098,0 H 42.8596 l 2e-6,-12.551186 h -3.01149 c -0.0021,6e-6 -0.0041,6e-6 -0.0061,0 -1.856189,-0.01031 1.738399,0.121951 -0.113481,-0.0049 -1.753239,-0.120076 1.117439,0.161223 -0.107379,-0.01098 -0.647171,-0.08196 -1.284315,-0.260687 -1.852285,-0.625969 -0.533196,-0.342917 -0.946972,-0.871257 -1.177508,-1.511847 z m -0.0012,18.491136 c -0.170978,0.660709 -0.464523,1.267542 -0.894418,1.794936 -0.02622,0.0712 -0.05975,0.139491 -0.100057,0.203776 -0.09784,0.138456 -0.122997,0.229001 -0.123242,0.345321 0.0015,0.324573 0.349342,0.785835 1.085992,0.784597 0.0013,-10e-7 0.0025,-10e-7 0.0037,0 0.739031,0 1.089652,-0.46661 1.089652,-0.785818 0,-0.126326 -0.02279,-0.208172 -0.117141,-0.340439 -0.07575,-0.113897 -0.129551,-0.240945 -0.158628,-0.374607 -0.371791,-0.48228 -0.627736,-1.029921 -0.785818,-1.627766 z"
       sodipodi:nodetypes="sscccccccscsscsscsccccccsssccsccccccssccscsssccccccccsccccccscscccc" /></g><ellipse
     style="opacity:0.389829;fill:#ffffff;stroke:none;stroke-width:1.63759;stroke-linecap:round;stroke-linejoin:round;stroke-dasharray:none"
     id="path9"
     cx="29.417822"
     cy="17.734867"
     rx="20.522982"
     ry="12.234853" /><path
     id="path3"
     style="fill:#999999;stroke:#000000;stroke-width:1.95396;stroke-linecap:round;stroke-linejoin:round;stroke-dasharray:none"
     d="m 28.590856,2.7063126 c -7.127402,0 -13.553197,2.8737675 -18.219889,7.5404624 -4.6522773,4.6715 -7.5460941,11.116403 -7.5460941,18.224583 0,7.127403 2.8747035,13.553082 7.5413991,18.224583 4.671501,4.647473 11.116406,7.541401 18.224584,7.541401 5.277067,0 10.188496,-1.586341 14.273657,-4.311383 l 10.756398,11.833072 7.694407,-7.031697 -11.15534,-12.1541 c 2.648145,-4.041906 4.195925,-8.901707 4.195925,-14.101876 0,-7.127403 -2.873767,-13.553083 -7.540463,-18.224583 C 42.14394,5.5993043 35.699036,2.7063126 28.590856,2.7063126 Z m 0.04787,4.787297 c 5.786509,0 11.034439,2.3592184 14.831236,6.1512074 3.791988,3.791989 6.147452,9.040143 6.147452,14.821848 0,5.781703 -2.360157,11.035489 -6.152148,14.827478 -3.79199,3.791992 -9.040031,6.146515 -14.82654,6.146515 -5.786509,0 -11.034551,-2.354523 -14.826541,-6.146515 -3.796794,-3.791989 -6.1521486,-9.040969 -6.1521486,-14.827478 0,-5.786509 2.3601606,-11.034552 6.1521486,-14.826542 3.79199,-3.7919899 9.040032,-6.1465134 14.826541,-6.1465134 z" /><style
     type="text/css"
     id="style1-5"><![CDATA[
	.st0{fill-rule:evenodd;clip-rule:evenodd;}
]]></style></svg>
