<?xml version="1.0" encoding="UTF-8" standalone="no"?>
<svg
   version="1.1"
   id="Layer_1"
   x="0px"
   y="0px"
   viewBox="0 0 64.000001 64"
   xml:space="preserve"
   sodipodi:docname="download.svg"
   width="64"
   height="64"
   inkscape:version="1.4 (e7c3feb100, 2024-10-09)"
   xmlns:inkscape="http://www.inkscape.org/namespaces/inkscape"
   xmlns:sodipodi="http://sodipodi.sourceforge.net/DTD/sodipodi-0.dtd"
   xmlns="http://www.w3.org/2000/svg"
   xmlns:svg="http://www.w3.org/2000/svg"><defs
     id="defs1" /><sodipodi:namedview
     id="namedview1"
     pagecolor="#ffffff"
     bordercolor="#000000"
     borderopacity="0.25"
     inkscape:showpageshadow="2"
     inkscape:pageopacity="0.0"
     inkscape:pagecheckerboard="0"
     inkscape:deskcolor="#d1d1d1"
     inkscape:zoom="7.1866939"
     inkscape:cx="36.873701"
     inkscape:cy="27.690062"
     inkscape:window-width="1920"
     inkscape:window-height="1021"
     inkscape:window-x="1920"
     inkscape:window-y="0"
     inkscape:window-maximized="1"
     inkscape:current-layer="Layer_1" /><style
     type="text/css"
     id="style1">.st0{fill-rule:evenodd;clip-rule:evenodd;}</style><g
     id="g4"
     transform="matrix(1.0286341,0.45134148,-0.45134148,1.0286341,-10.800027,-22.842723)"><path
       id="path6"
       style="fill:#ff7f2a;stroke:#000000;stroke-width:1.25738;stroke-linecap:round;stroke-linejoin:round"
       d="m 47.575568,4.585858 c -2.39648,0 -4.177323,1.6845113 -4.177323,3.6002084 0,0.681694 0.215401,1.3067071 0.616407,1.8688656 0.01368,0.0436 0.02516,0.08786 0.03437,0.132614 1.381461,1.588024 2.182335,3.228636 1.758356,4.860034 -0.22342,0.859688 -0.811717,1.597299 -1.559435,2.07761 -0.747717,0.480312 -1.643552,0.750633 -2.671914,0.879178 -0.05617,0.0076 -0.112766,0.0117 -0.169443,0.01227 h -7.492658 c -0.220772,0 -0.390472,0.169705 -0.390472,0.390472 v 7.620359 c 0.228909,1.229043 0.582914,1.517119 0.916015,1.583994 0.340916,0.06843 1.290425,-0.1473 2.563859,-1.313856 0.06461,-0.01542 0.130284,-0.0261 0.196464,-0.03192 l -0.06876,-0.03684 c 0.980866,-0.699685 2.175143,-1.122302 3.447949,-1.122302 3.556907,0 6.316327,3.179534 6.316327,6.89344 0,3.713907 -2.759422,6.893441 -6.316327,6.893441 -1.121509,0 -2.130504,-0.433123 -3.037829,-0.98969 -0.183405,0.0072 -0.366359,-0.02291 -0.537822,-0.0884 -1.273111,-1.16626 -2.220308,-1.380314 -2.561404,-1.3114 -0.333282,0.06734 -0.689479,0.35715 -0.91847,1.58645 v 7.725957 c 0,0.220768 0.169703,0.388018 0.390472,0.388018 h 8.553564 c 0.130567,2.05e-4 0.260422,0.01923 0.385562,0.05648 1.613677,0.476695 2.913765,1.705337 3.047652,3.273586 0.126477,1.481453 -0.630807,2.892749 -1.856588,4.295201 -0.0081,0.03889 -0.01797,0.0774 -0.02948,0.115428 -0.400449,0.566671 -0.620802,1.195301 -0.621319,1.871323 v 0.0025 c 0.0049,1.916068 1.785483,3.599321 4.179779,3.595297 h 0.0025 c 2.39648,0 4.179777,-1.686217 4.179777,-3.600208 0,-0.681697 -0.215401,-1.306707 -0.616407,-1.868866 -0.01489,-0.08594 -0.02147,-0.173113 -0.01965,-0.260315 -1.149568,-1.35647 -1.879653,-2.723377 -1.758355,-4.15522 0.132796,-1.567613 1.436195,-2.796822 3.050109,-3.273586 0.12435,-0.03702 0.253361,-0.05604 0.383106,-0.05649 h 8.524094 c 0.220769,0 0.390471,-0.169703 0.390471,-0.390472 l 6.7e-5,-27.401855 c 0,-0.220768 -0.1697,-0.390473 -0.390472,-0.390473 h -7.463174 c -0.0575,-4.65e-4 -0.114926,-0.0045 -0.171906,-0.01232 -1.026769,-0.130029 -1.920199,-0.401338 -2.667004,-0.881634 -0.746804,-0.480297 -1.33547,-1.215995 -1.559435,-2.075154 -0.412053,-1.580701 0.356456,-3.169785 1.657667,-4.712687 -0.0031,-0.09375 0.0035,-0.18757 0.01965,-0.279962 0.401008,-0.5621575 0.616406,-1.1871706 0.616406,-1.8688666 v -0.0025 c 0.0035,-1.914387 -1.772134,-3.597752 -4.174865,-3.597752 z"
       sodipodi:nodetypes="csccssccsscscccsssccscssccsccsssssccsccssssccssccsscc" /><path
       id="path7"
       style="opacity:0.200672;stroke-width:1.25738;stroke-linecap:round;stroke-linejoin:round"
       d="m 47.574558,6.6851793 c -1.413309,0 -2.077699,0.885439 -2.077699,1.5017271 0,0.241408 0.04356,0.397828 0.22386,0.650592 0.123198,0.174097 0.219131,0.3659611 0.284488,0.5689771 0.0024,0.0039 0.0047,0.0078 0.007,0.0117 0.654512,0.8327295 1.272877,1.7092755 1.620652,2.7049725 0.315212,-0.88812 0.868334,-1.660453 1.429438,-2.4134895 0.01158,-0.06508 -0.01348,0.08282 0.0024,-0.0093 0.05401,-0.311134 0.177563,-0.6060621 0.36144,-0.8627941 0.182536,-0.255889 0.226191,-0.413963 0.226191,-0.650592 -3e-6,-0.0024 -3e-6,-0.0047 0,-0.007 0.0011,-0.613907 -0.654985,-1.49473 -2.077698,-1.49473 z m 0.05596,9.3135007 c -0.439884,1.223593 -1.228807,2.235375 -2.250258,2.891523 -1.084839,0.696869 -2.300233,1.038739 -3.537452,1.193919 -0.0017,2.14e-4 -0.003,0.0021 -0.0047,0.0024 -2.11227,0.302605 3.106281,-0.207984 -0.202872,0.01866 -3.539006,0.242383 3.330377,-0.01039 -0.216865,0.0093 -0.0039,1.1e-5 -0.0078,1.1e-5 -0.0117,0 H 35.62131 v 4.61944 c 0.08153,-0.05085 0.166452,-0.09604 0.254174,-0.135249 0.01194,-0.0259 0.02436,-0.05155 0.03731,-0.07695 1.312134,-0.935989 2.929643,-1.513384 4.666078,-1.513385 4.806904,0 8.41573,4.238412 8.41573,8.991702 0,4.753291 -3.608827,8.991701 -8.41573,8.991702 -1.40836,0 -2.573892,-0.481426 -3.57243,-1.026024 0.003,-0.01039 0.310949,0.05553 -0.08162,-0.0093 -1.671166,-0.276102 1.296821,0.370418 -0.338122,-0.07229 -1.634943,-0.442705 1.25103,0.495223 -0.331126,-0.109602 -0.233115,-0.09167 -0.447929,-0.224353 -0.63427,-0.391754 v 4.722042 h 6.84638 c 0.0047,-1.5e-5 0.0093,-1.5e-5 0.01399,0 1.727023,0.01158 -1.47456,-0.123814 0.24718,0.0117 1.721738,0.135474 -1.460395,-0.23074 0.247178,0.02799 1.707572,0.258722 -1.439747,-0.333999 0.244847,0.04664 1.604063,0.362441 -0.933665,-0.301478 0.228523,0.06063 1.838412,0.543971 3.490103,1.878668 4.181048,3.76131 0.690287,-1.885962 2.343902,-3.22169 4.18338,-3.765975 10e-4,-3.01e-4 0.0013,-0.002 0.0024,-0.0024 1.05687,-0.332245 -1.358839,0.300634 0.226191,-0.0583 1.684896,-0.381544 -1.465311,0.213701 0.242515,-0.04663 1.707827,-0.260339 -1.477203,0.109816 0.244848,-0.02799 1.722049,-0.137804 -1.482647,0.0029 0.244846,-0.0117 0.0062,-2.8e-5 0.01244,-2.8e-5 0.01866,0 h 6.816065 l 3e-6,-23.985756 h -5.755062 c -0.0039,1.1e-5 -0.0078,1.1e-5 -0.0117,0 -3.547242,-0.0197 3.322141,0.233054 -0.216865,-0.0093 -3.350502,-0.229471 2.135464,0.308103 -0.205205,-0.02099 -1.236766,-0.156622 -2.454371,-0.498183 -3.539782,-1.19625 -1.018955,-0.655326 -1.809697,-1.665002 -2.250258,-2.889191 z m -0.0023,35.337203 c -0.326744,1.262638 -0.88772,2.422319 -1.709263,3.430186 -0.05011,0.136066 -0.114186,0.266572 -0.191213,0.389423 -0.186981,0.264596 -0.235051,0.43763 -0.23552,0.659921 0.0029,0.620269 0.667605,1.501759 2.075368,1.499393 0.0024,-3e-6 0.0047,-3e-6 0.007,0 1.412314,0 2.082363,-0.89171 2.082363,-1.501726 0,-0.241414 -0.04355,-0.397825 -0.22386,-0.650592 -0.144763,-0.21766 -0.247577,-0.460455 -0.303144,-0.715886 -0.710507,-0.921655 -1.199627,-1.968215 -1.501726,-3.110719 z"
       sodipodi:nodetypes="sscccccccscsscsscsccccccsssccsccccccssccscsssccccccccsccccccscscccc" /></g><g
     id="g3"
     transform="matrix(0.89513701,0,0,0.89513701,15.724429,15.954042)"><circle
       style="fill:#ffffff;stroke-width:2;stroke-linecap:round;stroke-linejoin:round"
       id="path3"
       cx="31.8552"
       cy="31.390991"
       r="16.529707" /><path
       d="m 51.759167,31.405576 v 0 A 19.892627,19.892627 0 0 0 31.863299,11.493506 v 0 0 0 a 19.889386,19.889386 0 0 0 -19.91207,19.90559 v 0 0 0 a 19.879665,19.879665 0 0 0 19.895868,19.889386 v 0 0 0 A 19.876426,19.876426 0 0 0 51.736484,31.392614 Z m -19.899109,9.57529 -8.917496,-9.892847 h 5.69657 v -6.892265 h 6.441854 v 6.892265 h 5.70953 z m 15.644503,-9.572049 v 0 A 15.670426,15.670426 0 0 1 31.863299,47.05656 v 0 0 0 A 15.667186,15.667186 0 0 1 16.209074,31.412056 v 0 0 0 A 15.641263,15.641263 0 0 1 31.850337,15.751351 v 0 0 0 a 15.650984,15.650984 0 0 1 15.641264,15.650984 z"
       id="path1"
       style="stroke-width:0.324037" /></g></svg>
